<?xml version="1.0" encoding="utf-8"?>
<!-- Generator: Adobe Illustrator 27.5.0, SVG Export Plug-In . SVG Version: 6.00 Build 0)  -->
<svg version="1.1" xmlns="http://www.w3.org/2000/svg" xmlns:xlink="http://www.w3.org/1999/xlink" x="0px" y="0px"
	 viewBox="0 0 2200 2200" style="enable-background:new 0 0 2200 2200;" xml:space="preserve">
<g id="background">
	<rect style="fill:#FFFFFF;" width="2200" height="2200"/>
</g>
<g id="Objects">
	<g>
		<g>
			<path style="fill:#4D85D6;" d="M1090.609,1881.792c-7.929-1.838-15.409-6.032-21.314-12.593L462.77,1195.984
				c-7-7.783-10.54-17.56-10.618-27.356h326.713L1090.609,1881.792z"/>
			<path style="fill:#A1E0FF;" d="M778.865,1168.627H452.152c-0.078-9.855,3.363-19.73,10.315-27.63l259.485-294.497
				c3.647-4.136,8.047-7.47,12.896-9.826L778.865,1168.627z"/>
			<path style="fill:#72C2F2;" d="M1100.005,832.489l-321.14,336.138l-44.017-331.954c5.583-2.728,11.762-4.185,18.107-4.185
				H1100.005z"/>
			<path style="fill:#72C2F2;" d="M1421.135,1168.627l-311.735,713.155c-6.169,1.447-12.622,1.447-18.792,0.01l-311.744-713.165
				H1421.135z"/>
			<path style="fill:#72C2F2;" d="M1465.152,836.673l-44.017,331.954l-321.13-336.138h347.04
				C1453.39,832.489,1459.569,833.946,1465.152,836.673z"/>
			<path style="fill:#A1E0FF;" d="M1747.848,1168.627h-326.713l44.017-331.954c4.849,2.356,9.249,5.69,12.896,9.826l259.486,294.497
				C1744.485,1148.897,1747.927,1158.772,1747.848,1168.627z"/>
			<path style="fill:#4D85D6;" d="M1747.848,1168.627c-0.078,9.797-3.618,19.574-10.618,27.356l-606.525,673.215
				c-5.905,6.551-13.385,10.755-21.304,12.583l311.735-713.155H1747.848z"/>
			<polygon style="fill:#A1E0FF;" points="1421.135,1168.627 778.865,1168.627 1100.005,832.489 			"/>
			<path style="fill:#16181E;" d="M1752.938,1127.427l-259.48-294.505v0c-11.739-13.323-28.656-20.965-46.413-20.965H752.956
				c-17.757,0-34.674,7.642-46.413,20.965l-259.48,294.505c-20.771,23.573-20.576,58.954,0.455,82.3l606.525,673.219
				c11.711,12.998,28.462,20.454,45.958,20.454s34.247-7.456,45.958-20.454l606.525-673.22
				C1773.514,1186.381,1773.709,1151,1752.938,1127.427z M1716.419,1148.095h-271.848l35.56-268.182L1716.419,1148.095z
				 M1100.003,1852.018l-289.755-662.859h579.505L1100.003,1852.018z M826.881,1148.095L1100,862.211l273.119,285.883H826.881z
				 M1148.011,853.021h294.263l-35.865,270.473L1148.011,853.021z M793.592,1123.493l-35.865-270.473h294.263L793.592,1123.493z
				 M765.431,1189.159l265.002,606.232l-546.174-606.232H765.431z M1434.569,1189.159h281.172l-546.165,606.222L1434.569,1189.159z
				 M719.87,879.913l35.561,268.182H483.581L719.87,879.913z"/>
		</g>
		<g>
			<path style="fill:#72C2F2;" d="M1331.46,470.993c-115.396,21.244-132.618,38.465-153.862,153.862
				c-21.244-115.396-38.465-132.618-153.861-153.862c115.396-21.244,132.618-38.465,153.861-153.862
				C1198.843,432.528,1216.064,449.749,1331.46,470.993z"/>
			<path style="fill:#72C2F2;" d="M1994.085,736.381c-115.396,21.244-132.618,38.465-153.862,153.862
				c-21.244-115.396-38.465-132.618-153.861-153.862c115.396-21.244,132.618-38.465,153.861-153.862
				C1861.468,697.916,1878.689,715.137,1994.085,736.381z"/>
			<path style="fill:#72C2F2;" d="M513.638,736.381c-115.396,21.244-132.618,38.465-153.862,153.862
				c-21.244-115.396-38.465-132.618-153.862-153.862c115.396-21.244,132.618-38.465,153.862-153.862
				C381.02,697.916,398.242,715.137,513.638,736.381z"/>
			<path style="fill:#72C2F2;" d="M889.838,624.855c-70,12.887-80.447,23.333-93.334,93.334c-12.887-70-23.333-80.447-93.334-93.334
				c70-12.887,80.447-23.333,93.334-93.334C809.392,601.521,819.838,611.968,889.838,624.855z"/>
			<path style="fill:#72C2F2;" d="M1673.253,415.856c-30.479,5.611-35.028,10.16-40.639,40.639
				c-5.611-30.479-10.16-35.028-40.639-40.639c30.479-5.611,35.028-10.16,40.639-40.639
				C1638.225,405.696,1642.774,410.245,1673.253,415.856z"/>
			<path style="fill:#72C2F2;" d="M700.042,375.217c-30.479,5.611-35.028,10.16-40.639,40.639
				c-5.611-30.479-10.16-35.028-40.639-40.639c30.479-5.611,35.028-10.16,40.639-40.639
				C665.014,365.057,669.562,369.606,700.042,375.217z"/>
			<path style="fill:#72C2F2;" d="M1617.013,624.855c-70,12.887-80.447,23.333-93.333,93.334
				c-12.887-70-23.333-80.447-93.333-93.334c70-12.887,80.447-23.333,93.333-93.334
				C1536.566,601.521,1547.012,611.968,1617.013,624.855z"/>
		</g>
	</g>
</g>
</svg>
